<svg xmlns="http://www.w3.org/2000/svg" width="128" height="128" viewBox="0 0 128 128" role="img" aria-label="Asciidoctor numbered captions icon">
  <defs>
    <linearGradient id="bg" x1="16" y1="10" x2="116" y2="122" gradientUnits="userSpaceOnUse">
      <stop offset="0" stop-color="#245a8d"/>
      <stop offset="0.52" stop-color="#27364f"/>
      <stop offset="1" stop-color="#171a24"/>
    </linearGradient>
    <linearGradient id="page" x1="35" y1="20" x2="92" y2="108" gradientUnits="userSpaceOnUse">
      <stop offset="0" stop-color="#ffffff"/>
      <stop offset="1" stop-color="#d8e4ef"/>
    </linearGradient>
    <filter id="shadow" x="-20%" y="-20%" width="140%" height="150%">
      <feDropShadow dx="0" dy="6" stdDeviation="6" flood-color="#05070b" flood-opacity="0.35"/>
    </filter>
  </defs>

  <rect width="128" height="128" rx="26" fill="url(#bg)"/>
  <path d="M20 82c18 7 31-4 43-19 15-19 28-27 46-22v51c-19-6-33 2-47 18-13 15-27 20-42 13z" fill="#3fb7a6" opacity="0.2"/>

  <g filter="url(#shadow)">
    <path d="M38 16h37l23 23v73H38z" fill="url(#page)"/>
    <path d="M75 16v23h23z" fill="#b8c9d9"/>
    <path d="M75 16v23h23" fill="none" stroke="#eff6fb" stroke-width="2"/>
    <rect x="48" y="35" width="23" height="5" rx="2.5" fill="#416482"/>
    <rect x="48" y="47" width="37" height="4" rx="2" fill="#8aa0b4"/>
    <rect x="48" y="57" width="29" height="4" rx="2" fill="#8aa0b4"/>
    <rect x="48" y="67" width="34" height="4" rx="2" fill="#8aa0b4"/>
  </g>

  <rect x="20" y="76" width="74" height="36" rx="8" fill="#121823"/>
  <rect x="26" y="83" width="16" height="4" rx="2" fill="#58d6c4"/>
  <rect x="26" y="93" width="25" height="4" rx="2" fill="#d6e4f0"/>
  <rect x="26" y="102" width="18" height="4" rx="2" fill="#8aa0b4"/>

  <g fill="#f7c650">
    <rect x="57" y="84" width="6" height="22" rx="2"/>
    <rect x="69" y="102" width="5" height="5" rx="2"/>
    <path d="M80 84h17v6H86v5h9c3 0 5 2 5 5v7H80v-6h14v-4h-9c-3 0-5-2-5-5z"/>
  </g>
</svg>
